<?xml version="1.0" encoding="utf-8"?>
<!-- Generator: Adobe Illustrator 25.2.0, SVG Export Plug-In . SVG Version: 6.00 Build 0)  -->
<svg version="1.1" id="Layer_1" xmlns="http://www.w3.org/2000/svg" xmlns:xlink="http://www.w3.org/1999/xlink" x="0px" y="0px"
	 viewBox="0 0 100 100" style="enable-background:new 0 0 100 100;" xml:space="preserve">
<style type="text/css">
	.st0{clip-path:url(#SVGID_2_);fill:#346178;}
	.st1{clip-path:url(#SVGID_2_);}
	.st2{fill:#FEE69F;}
	.st3{opacity:0.1;}
	.st4{fill:#FC611F;}
	.st5{opacity:0.4;fill:#FFFFFF;}
	.st6{fill:#8F6C08;}
</style>
<g>
	<defs>
		<path id="SVGID_1_" d="M100,50.1c0,27.5-22.3,49.9-49.9,49.9c-27.5,0-49.9-22.3-49.9-49.9c0-27.5,22.3-49.9,49.9-49.9
			C77.7,0.2,100,22.5,100,50.1z"/>
	</defs>
	<clipPath id="SVGID_2_">
		<use xlink:href="#SVGID_1_"  style="overflow:visible;"/>
	</clipPath>
	<path class="st0" d="M100,50.1c0,27.5-22.3,49.9-49.9,49.9c-27.5,0-49.9-22.3-49.9-49.9c0-27.5,22.3-49.9,49.9-49.9
		C77.7,0.2,100,22.5,100,50.1z"/>
	<g class="st1">
		<g>
			<path class="st2" d="M61.9,72.7c-0.7-0.1-1.3-0.7-1.3-1.3l-1.7-19.5H41.5l-1.7,19.5c-0.1,0.7-0.7,1.3-1.4,1.3
				c-0.5,0-1,0.1-1.7,0.1c0,0,0,0,0,0c0.1,0.1,0.6,1.2,1.6,2.6c0.5,0.7,1.2,1.6,1.9,2.4c0.7,0.9,1.5,1.7,2.4,2.6
				c0.8,0.8,1.7,1.6,2.6,2.4c0.8,0.7,1.7,1.4,2.4,1.9c1.5,1,2.6,1.6,2.6,1.6h0c0,0,0,0,0,0c0.1-0.1,1.2-0.6,2.6-1.6
				c0.7-0.5,1.6-1.2,2.4-1.9c0.8-0.7,1.7-1.5,2.6-2.4c0.8-0.8,1.6-1.7,2.4-2.6c0.7-0.8,1.4-1.7,1.9-2.4c1-1.4,1.5-2.5,1.6-2.6
				c0,0,0,0,0,0C62.9,72.8,62.3,72.7,61.9,72.7z"/>
			<g>
				<path class="st2" d="M69.1,43.2c-1.4-0.9-3.5,0.8-4.7,3.8c-1.2,3-0.9,6.1,0.5,6.9c1.4,0.9,3.5-0.8,4.7-3.8
					C70.7,47.2,70.5,44.1,69.1,43.2z"/>
				<path class="st2" d="M31.2,43.2c1.4-0.9,3.5,0.8,4.7,3.8c1.2,3,0.9,6.1-0.5,6.9c-1.4,0.9-3.5-0.8-4.7-3.8
					C29.6,47.2,29.8,44.1,31.2,43.2z"/>
			</g>
			<path class="st2" d="M69.5,37.9c0,13.7-8.7,29.1-19.3,29.1c-10.7,0-19.3-15.4-19.3-29.1c0-13.7,8.7-20.4,19.3-20.4
				C60.8,17.6,69.5,24.3,69.5,37.9z"/>
			<path class="st3" d="M50.1,67c-3.5,0-6.8-1.7-9.6-4.4l-0.1,1.1c2.9,2.8,6.2,4.5,9.7,4.5c3.5,0,6.9-1.7,9.7-4.5l-0.1-1.2
				C56.9,65.4,53.6,67,50.1,67z"/>
			<path class="st4" d="M84.7,78.8c3.2,4.2,0,21.1,0,21.1H15.6c0,0-3.2-16.9,0-21.1c2.9-3.8,15.4-5.4,21.1-6c0,0,0,0,0,0
				c0.1,0.1,0.6,1.2,1.6,2.6c0.5,0.7,1.2,1.6,1.9,2.4c0.7,0.9,1.5,1.7,2.4,2.6c0.8,0.8,1.7,1.6,2.6,2.4c0.8,0.7,1.7,1.4,2.4,1.9
				c1.5,1,2.6,1.6,2.6,1.6h0c0,0,0,0,0,0c0.1-0.1,1.2-0.6,2.6-1.6c0.7-0.5,1.6-1.2,2.4-1.9c0.8-0.7,1.7-1.5,2.6-2.4
				c0.8-0.8,1.6-1.7,2.4-2.6c0.7-0.8,1.4-1.7,1.9-2.4c1-1.4,1.5-2.5,1.6-2.6c0,0,0,0,0,0C69.3,73.4,81.8,75.1,84.7,78.8z"/>
		</g>
		<path class="st5" d="M50.1,17.6V67c-10.7,0-19.3-15.4-19.3-29.1C30.8,24.3,39.5,17.6,50.1,17.6z"/>
		<path class="st6" d="M69.7,35.6c-0.1-0.8-0.2-1.7-0.3-2.6c-0.3-1.8-0.8-3.8-1.7-5.7c-0.9-1.9-2.2-3.8-4-5.4
			c-1.7-1.6-3.9-2.8-6.2-3.7c-2.3-0.8-4.8-1.2-7.4-1.2L48.3,17c-0.6,0.1-1.3,0.2-1.9,0.2c-1.2,0.2-2.4,0.5-3.6,0.9
			c-2.3,0.8-4.5,2.1-6.2,3.7c-1.8,1.6-3.1,3.5-4,5.4c-0.9,1.9-1.4,3.9-1.7,5.7c-0.1,0.9-0.2,1.8-0.3,2.6c0,0.8,0,1.6,0,2.4
			c0.1,1.5,0.2,2.8,0.3,3.8c0.4,2.1,0.6,3.3,0.6,3.3l1.7,0.3c0,0,0.5-15.6,6.3-17.8c5.8-2.2,10.5,0,10.5,0s4.7-2.2,10.5,0
			c5.8,2.2,6.3,17.8,6.3,17.8l1.7-0.3c0,0,0.2-1.2,0.6-3.3c0.1-1.1,0.2-2.4,0.3-3.9C69.7,37.3,69.7,36.5,69.7,35.6z"/>
	</g>
</g>
</svg>
